<svg xmlns="http://www.w3.org/2000/svg" width="415" height="103"><rect id="backgroundrect" width="100%" height="100%" x="0" y="0" fill="none" stroke="none" class="" style=""/>
  <defs>
    <style>
      .cls-1 {
        fill: #47d6b6;
        fill-rule: evenodd;
      }
    </style>
  </defs>
  
<g class="currentLayer" style=""><title>Layer 1</title><path id="Shape_1_copy" data-name="Shape 1 copy" class="cls-1" d="M4.47533723496806,54.326317480923635 q-0.7478637117040347,0.4264276887470096 -1.4946505858102235,0.8555474714886334 l-0.0953001274093696,0.22882798954227165 l1.2006739215982702,2.085296008228745 q-1.9921495560150668,1.147370460504894 -3.9751459924484456,2.318969766961323 c-0.03715089712568645,0.06568709346860498 -0.07430179425137273,0.13083576813828682 -0.11091427257813624,0.196522861606892 l4.689089319820329,7.929832070537814 h0.22236696395519556 q7.832378267932753,-4.626632739145263 15.817129055960711,-8.873680225049819 q2.7459358745072553,5.163436281671485 5.49187174901451,10.325257306946202 l0.19275393001443125,0.06784076866429692 q0.8770842234455527,-0.46573226106838783 1.7557837032878751,-0.9276955905443142 l7.602473440792634,14.483465691028462 l0.22613589554765648,0.05061136709876128 q0.8027824291941804,-0.42050508195885644 1.6071801147851292,-0.8377796511241753 q3.157826255683344,6.092747128612569 6.31457567376884,12.186032676024057 l0.18252397283489424,0.07484021305029577 q4.667014149064487,-2.416961988365307 9.386793340423429,-4.690704576217099 c0.016152563967689763,-0.0635334182729131 0.03284354673430252,-0.127066836545826 0.04953452950091531,-0.19060025481873907 l-1.3858899884277793,-2.8805405742380037 q1.4079651591836224,-0.6778692678440467 2.8196992499597044,-1.342278065715017 c0.030151452739687543,-0.069456025061066 0.060302905479375085,-0.13945046892105478 0.09099277701798572,-0.2089064939821208 l-5.822999310352149,-12.387401306821259 l-0.2089064939821208,-0.026382521147226588 q-0.8614700782767863,0.4070446119857815 -1.7229401565535718,0.817858155564024 q-3.5287968081412844,-7.399489553598668 -7.055978359885799,-14.798979107197336 l-0.17444769085104936,-0.04199666631599337 q-0.8991593942013957,0.43073503913839295 -1.7967035320060216,0.8614700782767863 q-1.8306239163381703,-3.791545182015703 -3.6660936018666477,-7.58362878283033 q0.7683236260631092,-0.3709705524579413 1.5361088333272936,-0.7387105921223446 q0.6143358495711334,-0.25197999789596015 1.2286716991422657,-0.501806320596228 c3.3559643736870037,-0.7295574725406527 5.522023201754198,0.01130679477738283 6.5024838345929625,2.1536751956919646 c0.04684243550630034,0.10229957179536846 0.09368487101260066,0.2051375623896597 0.14106572531782383,0.3074371341850285 l0.19006183601981608,0.07807072584383377 q5.192510896813327,-2.3825031852342358 10.435633160725416,-4.609403337579728 l0.069456025061066,-0.1932923488133541 l-0.30851397178287443,-0.726865378546038 a8.971672446453802,8.971672446453802 0 0 0 -1.2566694766862614,-2.121908486555508 q1.7267090881460327,-0.7338648229320375 3.457725526683449,-1.4537307570920759 l0.12975893054044096,-0.17552452844889518 l-0.1577567080844368,-0.3822773472353243 c-1.4919584918156081,-3.610636465577579 -4.873228549051993,-6.002831189192428 -10.24934025629806,-7.011828018374115 c-4.011220051976284,-0.36612478326763453 -7.4775602794425025,0.13298944333397883 -10.333333588930047,1.4537307570920759 q-4.831231882736,2.1913645116165745 -9.619928680357084,4.51248795377359 q-11.081735719433006,5.510177988177891 -21.90179990258943,11.717069902162136 h0 zm0.004845769190306929,3.854001762690771 q1.2922051174151787,2.248436904302411 2.5897944228195877,4.496873808604824 l0.22290538275411867,0 q7.854453438688596,-4.518948979360665 15.854279953086397,-8.661004799475235 l0.23959636552073132,0.04522717910953134 l5.302886750592539,10.254186025488368 l0.17552452844889518,0.03607405952784046 q0.8474711895047884,-0.43773448352439226 1.6960192166074224,-0.8711616166573999 q3.7280117637427908,7.300420494596836 7.455485108686657,14.601379407992598 l0.20998333157996688,0.0193830767612277 q0.8539322150918638,-0.43504238952977714 1.7084028489826506,-0.8663158474670933 q3.0953696750082766,6.146050589705943 6.191816187614398,12.291562760612964 l0.18252397283489424,0.07645546944706481 q2.471342287056529,-1.2437474255121095 4.956145044086133,-2.4481902787028407 q0.5578018756842192,1.1500625544995091 1.1150653325695146,2.3012019465968643 q-3.959531847279677,1.9189245993615414 -7.883528053830437,3.939610351719527 L38.16258622718285,81.09380806938013 l-0.22667431434657945,-0.05384187989229915 q-0.8259344375478692,0.4264276887470096 -1.6513304562968145,0.8566243090864798 l-7.529786902938031,-14.436084836723241 l-0.2336737587325784,-0.047919273104146315 q-0.8808531550380136,0.46034807307915787 -1.7606294724781815,0.9255419153486216 l-5.448259826301746,-10.305335811386051 l-0.196522861606892,-0.06622551226752803 q-8.025670616746108,4.248124323502401 -15.90327606378839,8.879602831837971 q-1.9921495560150668,-3.3871926640245373 -3.9842991120301345,-6.7743853280490764 q1.622794259953896,-0.9546165304904631 3.2515111266959433,-1.8925420782143143 h0 zm33.75885869247155,-11.590003065616308 c3.1998229219993366,-1.4919584918156081 5.855842857086453,-1.2480547759034935 7.9190636945593536,0.6843302934311225 q0.6654856354688182,1.1452167853092021 0.8367028135263284,1.0682228970632148 q2.5305683549380578,-1.1269105461458204 5.075674017447037,-2.2177470327638007 q0.3160518349677963,-0.09368487101260066 1.4343476803308488,2.0459914359073665 l0.014537307570920775,0.034458803131071504 q-4.479105988240364,1.9140788301712341 -8.922137916952886,3.941764026915218 a4.010681633177361,4.010681633177361 0 0 0 -0.7128664897740402,-0.997690034404303 c-2.315200835368862,-1.835469685528477 -4.895303719807836,-2.0998333157996654 -7.693466217810621,-0.7640162756717251 q-0.9632312312732314,0.4592712354813117 -1.9243087873507703,0.924465077750776 l-1.112911657373823,-2.3022787841947103 q2.537029380525134,-1.2265180239465738 5.085365555827652,-2.416423569566385 h0 zm17.326855368140777,-16.532687639729364 l0.8835452490326287,2.198363956002573 q-2.052990880293365,0.8248575999500231 -4.098982316200732,1.6723287894548111 l-0.13460469973074782,0.17821662244351025 q3.9842991120301345,9.604314535188315 7.965906130065655,19.20809065157771 l0.21213700677565878,0.034458803131071504 q0.8856989242283206,-0.36774003966440344 1.776782036445871,-0.7300958913395766 l5.958142428881821,14.585765262823829 l0.17821662244351025,0.08937752062121668 q0.8113971299769475,-0.3311275613376404 1.6244095163506649,-0.658486191082818 q2.689401900620341,6.680162038237551 5.3793422200396055,13.359785657676177 l0.21213700677565878,0.07699388824598792 q4.8253092759478475,-1.9415381889163053 9.69153838061384,-3.7382417209223275 c0.0355356407289175,-0.06622551226752803 0.07053286265891194,-0.13298944333397883 0.10768375978459829,-0.19921495560150704 q-0.5459566621079135,-1.4817285346360718 -1.0924517430147491,-2.9613033940764515 q1.4117340907760831,-0.5211893973574554 2.826698694345704,-1.0294567435407591 l0.12168264855659608,-0.16152563967689754 q-2.4196540823599224,-6.7431570377115415 -4.838769745920922,-13.485237237825237 l-0.20352230599289084,-0.04684243550630034 q-0.8706231978584772,0.3128213221742584 -1.7396311393201846,0.6299499947399001 q-2.7001702765988007,-7.4000279723975915 -5.4003405531976005,-14.801671201191951 l-0.18090871643812517,-0.09368487101260066 q-0.8410101639177128,0.3068987153861056 -1.6804050714386558,0.6181047811635941 l-0.16852508406289654,-0.05814923028368311 l-6.9407567369162795,-18.721898476150248 l-0.2336737587325784,-0.07376337545244983 q-5.068136154262116,1.8844657962304698 -10.097506155001778,3.900305779398148 l-0.12383632375228804,0.2115985879767358 h0 zm1.1775219132445816,2.9311519413367644 L63.010613797478875,48.588388340801316 l0.2153675195691966,0.03607405952784046 q0.8544706338907877,-0.34297277491394623 1.7100181053794206,-0.6816381994365077 l5.798232045601692,14.649837099895665 l0.21967486996058067,0.07484021305029577 q0.8614700782767863,-0.3408190997182539 1.7261706693471095,-0.6773308490451236 q2.620484294358198,6.7275428925427745 5.242045426314243,13.454547366286626 l0.16152563967689754,0.05868764908260608 q2.6506357470978856,-1.0310719999375282 5.313655126570999,-2.021224171156909 q0.4258892699480864,1.1457552041081251 0.8507017022983265,2.2915104082162503 Q80.07848972333773,77.31895387013101 75.94343334760917,78.97136116402571 q-2.664634635869884,-6.6693936622590915 -5.330346109337612,-13.339325743317106 l-0.16421773367151246,-0.05384187989229915 q-0.8550090526897107,0.34243435611502276 -1.7100181053794206,0.6891760626214296 l-5.922606788152903,-14.600302570394753 l-0.22613589554765648,-0.07053286265891194 q-0.8900062746197046,0.3618174328762504 -1.7794741304404857,0.727942216143885 q-3.701629242595564,-8.98782501042149 -7.403258485191128,-17.976188439641906 q1.6664061826666583,-0.6864839686268143 3.338196553322545,-1.3573537920848606 h0 zm22.86556955266159,-8.729922405737376 a16.27209294105064,16.27209294105064 0 0 1 -2.6328679267334274,3.076525017045972 c-3.4997221929994424,4.177591460843488 -4.458107655082366,8.241038136315304 -3.0452967267084388,12.124114514147914 q1.3794289628407042,3.7990830452006255 2.758319506882484,7.599242927999097 l0.1798318788402792,0.09476170861044664 q0.8980825566035497,-0.323051279353795 1.7972419508049444,-0.6461025587075899 q2.6172537815646595,7.331110366135449 5.2355844007271655,14.66114389467305 l0.20190704959612196,0.04738085430522329 q0.801705591596334,-0.2859003822281086 1.6050264395894367,-0.5680318328637561 l0.3860462788277853,1.0994511874007478 A12.548926946498154,12.548926946498154 0 0 0 90.30844690287456,67.68556471980087 c4.441955091114677,3.002223222794599 9.061588385873941,3.715089712568639 14.041423857112685,2.1827498108338066 a16.281784479431252,16.281784479431252 0 0 0 7.787689507622144,-5.186588290025174 c1.4790364406414567,-2.1052175037888956 2.196748699605804,-3.3091219381807035 2.1100632729792026,-3.6246353543495773 c2.957534462483991,-3.6569404822849556 4.0149889835687445,-7.390874852815899 3.031836256735363,-11.257260247881899 c-0.030689871538610546,-0.12114422975767312 -0.0888391018222937,-0.17121717805751124 -0.17283243445428048,-0.1496804261005917 q-4.766621626865242,1.216288066767037 -9.507399151382177,2.5585661324820537 a3.6467105251054193,3.6467105251054193 0 0 1 -0.3133597409731816,2.708784977381569 q-1.4365013555265405,0.41135196237716537 -2.870849035857389,0.8340107195317132 l-0.12383632375228804,0.1932923488133541 l0.16152563967689754,0.5384187989229907 q0.05976448668045209,0.43073503913839295 0.12060581095875016,0.8663158474670933 l-0.3725858088547102,0.11037585377921325 q-0.5125746965746877,0.09314645221367755 -1.0229957179536833,0.1879081608241243 c-2.365812202467623,-0.07430179425137273 -3.8120050963747785,-0.920696146158315 -4.324579792949465,-2.5736418588518983 q-0.2891308950216467,-0.9341566161313893 -0.5788002088422155,-1.867774813463857 l-0.17014034045966547,-0.10499166578998335 q-0.8803147362390912,0.2729783310539568 -1.7595526348803352,0.5502640124992972 l-4.684243550630023,-14.84689838030148 l-0.16475615247043568,-0.06622551226752803 q-0.8501632834994028,0.2692093994614956 -1.69924972940096,0.5384187989229907 l-0.17660136604674131,-0.10122273419752247 l-2.2306690839379524,-6.945602506106586 q-0.0409198287181474,-0.28266986943457084 -0.08345491383306378,-0.5653397388691411 q-0.10337640939321437,-0.323051279353795 0.7419411049158824,-0.5922606788152903 l0.9793837952409207,-0.1529109388941296 c2.3690427152611617,-0.14214256291566968 3.8006983015973956,0.6175663623646713 4.298735690601161,2.2468216479056418 l0.12114422975767312,0.395199398409476 l0.16583299006828145,0.06730234986537391 q5.364266493669762,-1.6416389179162 10.763530209269517,-3.1292900593404243 l0.19275393001443125,-0.17014034045966547 a11.40532541758572,11.40532541758572 0 0 0 -1.1764450756467357,-2.87461796744985 l0.04522717910953134,-0.011845213576305833 l0.07914756344167981,-0.06137974307722107 q1.6572530630849671,-0.4560407226877735 3.3177366389634715,-0.8991593942013957 l0.2304432459390404,-0.2153675195691966 c-0.6999444385998892,-2.6382521147226576 -2.401886261995464,-4.812387224773695 -5.14997581169841,-6.477178151043583 c-4.131287444136111,-2.2974330150044033 -8.682541551432156,-2.72332228495249 -13.519157622157385,-1.2383632375228797 l-0.13783521252428585,0.04253508511491641 a18.135560404123108,18.135560404123108 0 0 0 -8.64754432950216,5.659858414278483 h0 zm-2.400271005598695,4.189975093218718 l0.08937752062121668,-0.031228290337533538 c-0.8485480271026341,2.493417457812372 -0.9180040521636997,4.698242439402023 -0.24605739110780714,6.613936525970023 l2.6247916447495823,7.487790236622038 l0.22290538275411867,0.08130123863737174 q0.864700591070324,-0.30259136499472133 1.7310164385374165,-0.6014137983969814 q2.5375677993240573,7.358031306081598 5.075674017447037,14.717139449761039 l0.16152563967689754,0.0635334182729131 q0.8727768730541687,-0.3009761085979524 1.7477074213040291,-0.5976448668045204 q0.35051063809886784,1.032687256334297 0.6999444385998892,2.065374512668594 a11.414478537167412,11.414478537167412 0 0 0 3.996144325606439,5.361574399675146 c4.240586460317479,2.843389677112316 8.662620055872003,3.5352578337283584 13.429241682737247,2.1202932301587394 a16.33724161572032,16.33724161572032 0 0 0 5.540329440917579,-2.8837710870315405 l0.08130123863737174,-0.022613589554765653 c-2.0906801962179746,3.1061380509867362 -4.686935644624637,5.124131709350106 -7.865760233465979,6.095977641406105 q-0.44096499631793035,0.1351431185296709 -0.8819299926358607,0.2692093994614956 c-2.7507816436975623,0.8485480271026341 -5.712085037774015,0.7882451216232593 -8.946905181703345,-0.16637140886720445 c-3.8195429595596995,-1.5490308845014453 -6.291423665415151,-3.7689315924609383 -7.3321872037332945,-6.755002251287847 q-0.4458107655082374,-1.2776678098442584 -0.8910831122175501,-2.5564124572863625 l-0.2153675195691966,-0.08453175143090977 q-0.8458559331080201,0.29559192060872236 -1.6911734474171158,0.5949527728099057 l-5.199510341199326,-14.673527527048277 l-0.20944491278104385,-0.04576559790845435 q-0.8803147362390912,0.3128213221742584 -1.7590142160814126,0.6294115759409771 q-1.1726761440542748,-3.2547416394894815 -2.344813869309627,-6.510021697777886 c-1.3611227236773216,-3.7689315924609383 -0.6746387550505087,-7.508788569780036 2.182211392034883,-11.173805334048835 h0 zm13.716757321362122,-1.6615604134763506 a7.72038715775677,7.72038715775677 0 0 1 1.9980721628032199,-0.2153675195691966 a4.672936755852639,4.672936755852639 0 0 1 3.0813707862362785,1.3158955445677905 a6.009292214779505,6.009292214779505 0 0 0 0.9384639665227735,1.3702758432590123 q2.6549430974892707,-0.7801688396394141 5.318500895761306,-1.523725200952065 q0.3128213221742584,-0.08722384542552476 1.0660692218675225,1.9280777189432312 l0,0.3510490568977903 q-4.583559235231424,1.273360459452874 -9.142351205712389,2.658173610282807 L93.72740627603557,31.789721814403993 c-1.5587224228820593,-1.7261706693471095 -3.616020653566809,-2.199440793600419 -6.1422816581134825,-1.393966270411624 l-0.31228290337533526,0.09960747780075355 a5.104748632588879,5.104748632588879 0 0 1 3.6542483882903407,-3.70809026818264 h0 zm14.584688425225984,29.466045608658536 q0.560493969678834,-0.16152563967689754 1.1209879393576676,-0.323051279353795 l0.02099833315799668,0.07214811905568091 q-0.6014137983969814,0.4845769190306923 -1.2006739215982702,0.9761532824473832 q-0.10768375978459829,-0.6746387550505087 0.05868764908260608,-0.7225580281546545 h0 zm24.508285308175637,-48.67736677302979 q-0.820550249558639,0.16152563967689754 -1.6405620803183545,0.32735862974517915 l-0.1577567080844368,0.18521606682950922 l0.47650063704684736,2.358812758081624 q-2.1881339988230364,0.4425802527146989 -4.373037484852534,0.908312513783087 l-0.16152563967689754,0.1496804261005917 q0.9637696500721546,4.504950090588667 1.9264624625464624,9.00936176237841 l0.20567598118858266,0.07160970025675792 q8.630314927936624,-1.8403154547187839 17.319317504955862,-3.300507237397936 l1.9383076761227682,11.532392254131548 l0.15829512688335964,0.12598999894797996 q0.9540781116915402,-0.16152563967689754 1.9086946421820037,-0.3149749973699505 q1.3137418693720986,8.072513052252406 2.6285605763420428,16.14448768570589 l0.19436918641120007,0.12114422975767312 q0.8717000354563227,-0.14214256291566968 1.7444769085104916,-0.27890093784210984 L154.32644209481822,58.17224296163056 l0.1464499133070537,0.12922051174151786 q5.061136709876116,-0.7957829848081813 10.144348590508077,-1.446192893907154 l0.10445324699106039,-0.16475615247043568 q-0.20244546839504485,-1.5856433628282094 -0.4059677743879355,-3.1707483068574955 q1.5161873377671429,-0.19383076761227713 3.031836256735363,-0.3768931592460941 l0.14860358850274571,-0.16906350286181954 q-0.8076281983844872,-6.795383661207072 -1.6152563967689746,-13.591305741213064 l-0.18575448562843222,-0.09153119581690858 q-0.9276955905443142,0.11091427257813624 -1.8543143434907825,0.22613589554765648 q-1.0127657607741463,-8.134969632927472 -2.0249931027493697,-16.269400847056026 l-0.1491420073016686,-0.0953001274093696 q-0.9691538380613844,0.12060581095875016 -1.933461906932461,0.24605739110780714 q-0.542726149314375,-4.177053042044566 -1.0843754610309042,-8.353029246491284 q0.8264728563467918,-0.10768375978459829 1.6534841314925066,-0.2110601691778126 q0.6461025587075899,-0.04361192271276239 1.2954356302087167,-0.08453175143090977 c3.343042322512852,0.3768931592460941 5.1311311537361055,1.7665520792663343 5.384187989229911,4.106520179385654 l0.03715089712568645,0.33597333052794687 l0.1523725200952067,0.13460469973074782 q5.561866192874498,-0.6094900803808263 11.136116018124225,-1.0628387090739846 l0.124374742551211,-0.16152563967689754 q-0.032305127935379596,-0.39412256081162994 -0.06407183707183604,-0.7871682840254134 a9.141812786913466,9.141812786913466 0 0 0 -0.5184973033628406,-2.4099625439793084 q1.834931266729554,-0.15021884489951473 3.671477789855877,-0.2837467070324168 l0.17552452844889518,-0.12598999894797996 c-0.010229957179536847,-0.13729679372536285 -0.019921495560150698,-0.2745935874507257 -0.030151452739687543,-0.41242879997501164 c-0.27997777543995567,-3.8965368478056868 -2.6996318577998784,-7.2331181447314625 -7.399489553598668,-9.892907011411038 c-3.6262506107463457,-1.6152563967689746 -7.005905411585961,-2.2435911351121036 -10.068431539859935,-1.8995415226003136 q-5.165589956867177,0.5416493117165293 -10.321488375353741,1.2135959727724221 q-11.972280412851633,1.6847124218300396 -23.855721723880972,4.067215607064274 h0 zm-1.1651382808693531,3.6456336875075728 q0.5136515341725337,2.5434904061122103 1.0278414871439903,5.0864423934254965 l0.20621439998750576,0.07322495665352684 q8.626545996344163,-1.7380158829234156 17.306395453781704,-3.1007538629975064 l0.20782965638427464,0.12006739215982713 q0.8932367874132426,5.701855080594476 1.7870119936254076,11.404786998786799 l0.15183410129628375,0.09045435821906254 q0.9190808897615463,-0.14375781931243872 1.8381617795230922,-0.28266986943457084 q1.2281332803433427,8.104818180187785 2.456266560686686,16.20963636037557 l0.18898499842197017,0.08560858902875572 q0.9239266589518529,-0.1399888877199778 1.8489301555015516,-0.27405516865180235 l1.9883806244226059,13.618226681159213 l0.1464499133070537,0.1302973493393639 q2.6721724990548053,-0.3881999540234769 5.349190767299917,-0.7381721733234213 l0.3311275613376404,2.5354141241283648 q-4.264815306269013,0.5572634568852954 -8.519939074157412,1.214672810370268 q-1.0579929398836776,-6.8379187463219875 -2.116524298566278,-13.675837492643975 l-0.19383076761227713,-0.12222106735551919 q-0.896467300206781,0.13891205012213184 -1.7923961816146377,0.2821314506356475 q-1.2884361858227178,-8.038592667920257 -2.5757955340475895,-16.077185335840515 l-0.20190704959612196,-0.11952897336090418 q-0.9573086244850785,0.15344935769305268 -1.9135404113723111,0.3117444845764123 q-0.9530012740936947,-5.750312772497545 -1.9054641293884669,-11.500087126196169 l-0.16152563967689754,-0.12545158014905702 q-8.728845568139532,1.4483465691028468 -17.40438767518569,3.2800473230388616 l-1.6249479351495872,-7.689158867419238 q1.7864735748264846,-0.3768931592460941 3.5761776624465087,-0.7387105921223446 h0 zm34.82492791433907,-0.16152563967689754 c3.432958261932992,-0.3973530736051681 5.831075592335994,0.6762540114472768 7.160970025675782,3.163210443672573 q0.2692093994614956,1.2959740490076403 0.45065653469854394,1.2782062286431812 q2.7039392081912617,-0.26651730546688085 5.410570510377138,-0.4953452950091523 q0.323051279353795,0.010768375978459832 0.7085591393826566,2.3932715612126962 c0,0.01238363237522881 0,0.024767264750457638 0,0.03768931592460943 q-4.763929532870626,0.3973530736051681 -9.520859621355251,0.90885093258201 a4.081214495836273,4.081214495836273 0 0 0 -0.3569716636859438,-1.1715993064564287 c-1.5904891320185164,-2.4767264750457594 -3.9110741553766077,-3.5444109533100514 -6.920296822557206,-3.1702098880585723 q-1.035379350328912,0.12868209294259503 -2.070758700657824,0.26274837387441985 q-0.16475615247043568,-1.2668994338657982 -0.32897388614194834,-2.5354141241283648 Q160.94468597117964,11.37557305323877 163.67985346970846,11.060598055868832 zm25.55281777808624,-7.650931132695704 c-0.3553564072891746,0.4463491843071602 -1.2232875111530361,1.018149948763376 -2.5962554484066636,1.725632250548187 c-3.8378491987230827,2.6640962170709606 -5.567788799662654,5.846689737504761 -5.300733075396849,9.468094579060802 q0.36020217647948133,4.913071540172294 0.7193275153611165,9.825604661545665 l0.14537307570920763,0.1399888877199778 q0.9400792229195428,-0.06891760626214292 1.8806968646380084,-0.13245102453505603 q0.5287272605423776,7.784997413627528 1.0585313586826006,15.569456408456137 l0.18252397283489424,0.13837363132320868 q0.8614700782767863,-0.05814923028368311 1.7197096437600345,-0.11199111017598228 q0.45550230388885105,7.2428096831120765 0.9120814453755475,14.483465691028462 l0.13083576813828682,0.10768375978459829 q5.061136709876116,-0.3165902537667191 10.131964958132848,-0.4915763634166913 l0.16152563967689754,-0.11845213576305819 q-0.05384187989229915,-1.5781054996432866 -0.10768375978459829,-3.1567494180854982 q1.4817285346360718,-0.051149785897684256 2.964533906869989,-0.0888391018222937 l0.16152563967689754,-0.11737529816521218 q-0.18413922923166323,-7.1981209228014675 -0.36774003966440344,-14.39678026440186 l-0.17660136604674131,-0.10768375978459829 q-0.9120814453755475,0.023152008353688667 -1.8236244719521708,0.05384187989229915 l-0.2692093994614956,-8.644852235507548 q4.4414166723157535,-0.1362199561275169 8.883910182229354,-0.17175559685643443 q0.04684243550630034,5.885455891027217 0.09314645221367755,11.769296525657664 l0.1733708532532033,0.1491420073016686 q0.8830068302337059,-0.006461025587075904 1.7660136604674115,-0.009153119581690867 q0.0193830767612277,7.181968358833778 0.03984299112030141,14.36447513646648 l0.16637140886720445,0.1496804261005917 q5.071905085854577,-0.011845213576305833 10.143271752910229,0.1179137169641352 l0.1696019216607424,-0.14591149450813087 q0.04145824751707037,-1.561414516876674 0.08130123863737174,-3.1201369397587335 q1.4828053722339178,0.038766153522455396 2.9656107444678357,0.08937752062121668 l0.1302973493393639,-0.14591149450813087 q0.24605739110780714,-7.121665453354404 0.4921147822156143,-14.242792487909885 l-0.12598999894797996,-0.11737529816521218 q-0.9120814453755475,-0.030689871538610546 -1.8236244719521708,-0.05761081148476012 q0.2304432459390404,-7.818917797959678 0.4598096542802344,-15.636220339522588 l-0.13245102453505603,-0.11683687936628928 q-0.9497707613001566,-0.027459358745072607 -1.8990031038013906,-0.05061136709876128 q0.11629846056736622,-4.810771968376926 0.23313533993365537,-9.62315919315062 a8.839759840717667,8.839759840717667 0 0 0 -1.9302313941389229,-5.645859525506487 a13.41955014435663,13.41955014435663 0 0 0 -10.98374349802902,-5.103671794991033 q-4.7784668404415465,0.03499722192999454 -9.55639526208417,0.1798318788402792 a14.811362739572562,14.811362739572562 0 0 0 -8.88014125063689,3.225128605548717 h0 zm-2.4029630995933102,2.618330619162506 l0.09368487101260066,-0.005384187989229916 c-1.0186883675622995,1.8925420782143143 -1.4714985774565348,3.567024542864816 -1.3815826380363954,5.017524787163355 q0.30528345898933645,4.916840471764754 0.6111053367775958,9.833142524730588 l0.1448346569102847,0.1416041441167467 q0.9029283257938563,-0.05384187989229915 1.8069334891855582,-0.10768375978459829 l0.8916215310164741,15.579686365635672 l0.18198555403597133,0.14052730651890072 q0.8894678558207826,-0.051149785897684256 1.776782036445871,-0.09691538380613862 q0.3768931592460941,7.247655452302384 0.7537863184921884,14.494772485805845 l0.17283243445428048,0.10445324699106039 q2.7540121564911,-0.14214256291566968 5.509101150580045,-0.24282687831426905 l0.09045435821906254,2.4804954066382194 q-4.3331944937322335,0.1577567080844368 -8.662081637073081,0.4188898255620876 l-0.8754689670487837,-14.487773041419846 l-0.1362199561275169,-0.10499166578998335 q-0.9045435821906256,0.05384187989229915 -1.809625583180174,0.11414478537167436 l-1.0229957179536833,-15.608760980777513 l-0.14214256291566968,-0.10391482819213735 q-0.9422328981152339,0.061918161876144025 -1.8844657962304698,0.12868209294259503 l-0.6186431999625168,-8.739613944117993 c-0.2546720918905752,-3.5729471496529692 1.216288066767037,-6.577862466442182 4.4979506462026695,-8.956058301285033 h0 zm12.335174683325727,2.7405516865180246 q3.817389284364007,-0.10768375978459829 7.6363938251247845,-0.14537307570920763 a3.4383424499222217,3.4383424499222217 0 0 1 1.2582847330830305,0.14052730651890072 c1.2125191351745759,0.31820551016348825 1.8177018651640182,0.9691538380613844 1.819317121560787,1.9474607957044587 q0.004845769190306929,2.350198057298857 0.010229957179536847,4.699857695798789 q-1.6717903706558879,0.0037689315924609463 -3.343042322512852,0.02099833315799668 q-0.008614700782767885,-0.8453175143090967 -0.01722940156553574,-1.6917118662160384 a1.6739440458515804,1.6739440458515804 0 0 0 -0.19383076761227713,-0.8614700782767863 a2.814853480769398,2.814853480769398 0 0 0 -2.8423128395144714,-1.7267090881460327 q-3.6564020634860332,0.06514867466968201 -7.3106504517763735,0.196522861606892 c-0.06084132427829807,-1.6524072938946603 0.9336181973324669,-2.519799978959598 2.9828401460333707,-2.578487628042205 h0 zm-2.7696263016598666,3.361348561676234 q3.3705016812579243,-0.11952897336090418 6.742080200113695,-0.18306239163381716 c1.601795926795899,-0.02907461514184155 2.411577800376078,0.6396415331205142 2.4282687831426903,1.9921495560150668 l0.0193830767612277,1.5038037053919142 q-4.625017482748494,0.05976448668045209 -9.247881290301295,0.22559747674873354 l-0.12114422975767312,-3.3823468948342312 l0.17929346004135635,-0.1566798704865907 h0 zm15.527998160939065,11.968511481259169 l-0.0355356407289175,11.769296525657664 l0.12975893054044096,0.15129568249736072 q0.9120814453755475,0 1.8241628907510943,0.010229957179536847 q-0.05814923028368311,7.181968358833778 -0.11683687936628928,14.363936717667556 l0.16583299006828145,0.15183410129628375 q2.715246002968645,0.022613589554765653 5.43049200593729,0.08668542662660181 l-0.05814923028368311,2.4810338254371436 q-4.2944283402097785,-0.10014589659967645 -8.589395099218477,-0.09960747780075355 q0,-7.200813016796084 0,-14.40216445239109 l-0.12975893054044096,-0.11252952897490533 q-0.9061588385873945,0 -1.812317677174788,0.005384187989229916 q-0.031228290337533538,-5.8849174722282935 -0.06245658067506709,-11.769296525657664 l-0.17875504124243327,-0.1496804261005917 q-4.874843805448761,0.028536196342918572 -9.74538026050614,0.17767820364458728 q-0.03822773472353241,-1.2383632375228797 -0.07645546944706481,-2.4804954066382194 Q205.2926271820696,24.076872519832133 211.9232546908063,24.096794015392284 zm22.676046135440693,-20.483604786226273 a16.072877985449132,16.072877985449132 0 0 1 -3.5481798849025115,1.8812352834369317 c-4.738085430522324,2.5844102348303575 -7.107128145783483,5.997447001203199 -7.240117589117461,10.127119188942542 l-0.2632867926733428,8.08058933423625 l0.12922051174151786,0.15452619529089856 q0.9416944793163117,0.031228290337533538 1.8844657962304698,0.06676393106645097 q-0.2939766642119535,7.778536388040452 -0.5874149096249839,15.555995938483061 l0.16798666526397346,0.11952897336090418 q0.8388564887220205,0.032305127935379596 1.6782513962429633,0.06784076866429692 l-0.05007294829983824,1.16459986207043 a12.663610150668752,12.663610150668752 0 0 0 1.6804050714386558,7.077515111842718 c2.9683028384624506,4.434955646728678 6.945602506106586,6.8077672935823 12.089117292217919,7.230426050736847 a16.069647472655596,16.069647472655596 0 0 0 9.08312513783086,-1.9350771633292312 c2.137522631724275,-1.4085035779825448 3.2466653575056372,-2.2613589554765627 3.278970485441016,-2.5844102348303575 c4.081214495836273,-2.3028172029936327 6.439488835118975,-5.380419057637451 6.961755070074275,-9.335643554525742 c0.016152563967689763,-0.12383632375228804 -0.021536751956919665,-0.19221551121550814 -0.10768375978459829,-0.20298388719396784 q-4.853845472290766,-0.6331805075334382 -9.71307513257076,-1.1409094349178186 a3.6494026191000346,3.6494026191000346 0 0 1 -1.2922051174151787,2.400271005598695 q-1.4698833210597662,-0.1496804261005917 -2.9505350180979915,-0.28751563862487756 c-0.05922606788152911,0.04415034151168536 -0.12383632375228804,0.0888391018222937 -0.18306239163381716,0.13352786213290196 c-0.016152563967689763,0.18736974202520118 -0.03768931592460943,0.3742010652514792 -0.05384187989229915,0.5615708072766804 l-0.20998333157996688,0.8490864459015578 l-0.3822773472353243,-0.03499722192999454 c-0.33920384332148484,-0.06891760626214292 -0.6730234986537396,-0.13729679372536285 -1.0122273419752237,-0.2051375623896597 c-2.148291007702735,-0.9449249921098498 -3.165902537667188,-2.2662047246668697 -3.03129783793644,-3.9918369752150564 c0.05384187989229915,-0.6493330715011276 0.10768375978459829,-1.2992045618011778 0.15614145168766771,-1.9490760521012285 c-0.03768931592460943,-0.05384187989229915 -0.07537863184921881,-0.10768375978459829 -0.11845213576305819,-0.16152563967689754 c-0.6030290547937498,-0.04845769190306929 -1.21144229757673,-0.0953001274093696 -1.8198555403597096,-0.14052730651890072 l1.162984605673661,-15.524229229346602 c-0.03768931592460943,-0.0409198287181474 -0.08076281983844875,-0.08183965743629477 -0.12383632375228804,-0.12275948615444207 q-0.8803147362390912,-0.06514867466968201 -1.7606294724781815,-0.127066836545826 c-0.04307350391383938,-0.05384187989229915 -0.08614700782767871,-0.10768375978459829 -0.12383632375228804,-0.16152563967689754 q0.25036474149919097,-3.6380958243226513 0.5061136709876116,-7.277268486243148 l0.12922051174151786,-0.5561866192874495 c0.016152563967689763,-0.22505905794981054 0.31766709136456545,-0.31766709136456545 0.8991593942013957,-0.2756704250485716 c0.323051279353795,0.07322495665352684 0.6407183707183596,0.14698833210597675 0.9583854620829244,0.22075170755842663 c2.229053827541183,0.7462484553072661 3.268202109462557,1.9813811800366072 3.122829033753349,3.678477234241876 l-0.032305127935379596,0.41242879997501164 l0.12922051174151786,0.12383632375228804 q5.5322531589337345,0.4614249106770035 11.064506317867469,1.0768375978459823 l0.24228845951534606,-0.08668542662660181 a11.39024969121588,11.39024969121588 0 0 0 -0.026920939946149594,-3.1050612133888897 l0.04845769190306929,0.004845769190306929 l0.09691538380613862,-0.026920939946149594 q1.6960192166074224,0.18898499842197017 3.3920384332148443,0.39196888561593807 l0.29074615141841526,-0.11629846056736622 c0.3284354673430249,-2.7109386525772616 -0.44150341511685326,-5.358882305680531 -2.3582743392827012,-7.92175578855397 c-2.9613033940764515,-3.6612478326763402 -6.999444385998885,-5.742774909312625 -11.995970840004244,-6.15251161529302 l-0.1399888877199778,-0.01130679477738283 a17.79851023599732,17.79851023599732 0 0 0 -10.025358035946095,2.052990880293365 h0 zm-3.74201065251479,3.00060796639783 l0.09153119581690858,0.004845769190306929 c-1.6906350286181935,2.000764256797835 -2.566103995666976,4.021988427954743 -2.654404678690346,6.050212043497652 q-0.17175559685643443,3.9638391976710605 -0.34458803131071497,7.9266015577442746 l0.17390927205212633,0.15829512688335964 q0.9034667445927796,0.03984299112030141 1.8074719079844814,0.08345491383306378 q-0.3795852532407093,7.775305875246918 -0.7537863184921884,15.548996494097063 c0.04145824751707037,0.03984299112030141 0.08130123863737174,0.07968598224060283 0.124374742551211,0.11899055456198117 c0.60841324278298,0.030151452739687543 1.2168264855659598,0.06084132427829807 1.8198555403597096,0.09368487101260066 l-0.11306794777382821,2.177904041643499 a11.468320417059712,11.468320417059712 0 0 0 1.6960192166074224,6.461025587075894 c2.8428512583133942,4.212588682773482 6.649472166698941,6.492792296212349 11.559851612876619,6.945602506106586 A16.098722087797434,16.098722087797434 0 0 0 250.42881351458297,51.54969173487776 c0.026920939946149594,0.0032305127935379537 0.05384187989229915,0.006461025587075904 0.08614700782767871,0.009153119581690867 c-3.07437134185028,2.1116785293759714 -6.213352939571318,3.0253752311482875 -9.492323425012334,2.7507816436975623 l-0.9099277701798555,-0.07484021305029577 c-2.8428512583133942,-0.22990482714011742 -5.540329440917579,-1.3831978944331644 -8.157044803683316,-3.4690323214608316 c-2.9354592917281472,-2.853619634291853 -4.383805860830994,-5.8343061051295315 -4.241124879116401,-8.991593942013953 q0.06137974307722107,-1.3530464416934769 0.12222106735551919,-2.7044776269901853 l-0.16529457126935856,-0.15829512688335964 q-0.884622086630475,-0.03984299112030141 -1.768167335663104,-0.07484021305029577 L226.52840303039133,23.282704791420727 l-0.17498610964997224,-0.12006739215982713 q-0.920696146158315,-0.03607405952784046 -1.8419307111155527,-0.06891760626214292 l0.24228845951534606,-6.9143742157690555 c0.13783521252428585,-4.0052974451881305 2.137522631724275,-7.222349768753004 6.103515504591028,-9.566625219263706 h0 zm13.202028949591744,3.5401036029186668 a7.565860962465871,7.565860962465871 0 0 1 1.916770924165849,0.5384187989229907 a4.630401670737724,4.630401670737724 0 0 1 2.3528901512934715,2.363658527271931 a5.814923028368304,5.814923028368304 0 0 0 0.3607405952784048,1.6195637471603583 q2.729783310539567,0.257902604684113 5.459566621079131,0.5529561064939119 c0.2153675195691966,0.023152008353688667 0.3068987153861056,0.7537863184921884 0.2692093994614956,2.1854419048284215 c-0.04307350391383938,0.10768375978459829 -0.08076281983844875,0.2153675195691966 -0.12383632375228804,0.3268202109462564 q-4.700396114597715,-0.5125746965746877 -9.400792229195426,-0.9153119581690851 c-0.032305127935379596,-0.33005072373979405 -0.06461025587075905,-0.660101447479588 -0.10229957179536846,-0.9901521712193806 c-0.7968598224060277,-2.1800577168391913 -2.5144157909703684,-3.3818084760353075 -5.1311311537361055,-3.569178218060509 l-0.323051279353795,-0.023152008353688667 a5.039061539120274,5.039061539120274 0 0 1 4.721932866554634,-2.0906801962179746 h0 zm2.562873482873437,32.76870652125216 c0.3822773472353243,0.03661247832676344 0.7699388824598778,0.07430179425137273 1.1522162296952012,0.11199111017598228 c0,0.025305683549380616 -0.005384187989229916,0.05007294829983824 -0.005384187989229916,0.07484021305029577 q-0.7349416605298835,0.2304432459390404 -1.4698833210597662,0.4625017482748499 q0.15344935769305268,-0.6660240542677405 0.323051279353795,-0.6493330715011276 h0 zm43.56884920884844,-35.592713121603246 c-0.5438029869122212,-0.10768375978459829 -1.0929901618136721,-0.2115985879767358 -1.642177336715124,-0.3155134161688734 c-0.069994443859989,0.03715089712568645 -0.1399888877199778,0.07484021305029577 -0.2153675195691966,0.11199111017598228 c-0.14537307570920763,0.7882451216232593 -0.2961303394076453,1.5764902432465182 -0.4468876031060834,2.364735364869777 q-2.188672417621959,-0.4156593127685493 -4.388113211222378,-0.8076281983844872 c-0.069994443859989,0.025844102348303588 -0.1399888877199778,0.05384187989229915 -0.20459914359073686,0.07753230704491083 l-1.6152563967689746,9.07020308665671 l0.16152563967689754,0.14375781931243872 q8.673926850649387,1.5474156281046767 17.294011821406475,3.4749549282489847 q-1.2760525534474891,5.707239268583707 -2.557489294884208,11.414478537167412 c0.03768931592460943,0.05868764908260608 0.069994443859989,0.11737529816521218 0.10229957179536846,0.17606294724781818 q0.9449249921098498,0.21213700677565878 1.8898499842196994,0.43073503913839295 q-1.8252397283489408,7.9712903180548835 -3.6558636446871096,15.943119054908692 c0.04307350391383938,0.061918161876144025 0.09153119581690858,0.12383632375228804 0.13460469973074782,0.18521606682950922 q0.8614700782767863,0.19867653680258404 1.7283243445428016,0.40112200519762886 q-1.5748749868497491,6.680700457036473 -3.1389815977210387,13.361939332871872 c0.026920939946149594,0.05814923028368311 0.05922606788152911,0.11629846056736622 0.08614700782767871,0.17498610964997224 q5.007294829983818,1.1764450756467357 9.987668720021485,2.4982632270026794 c0.05384187989229915,-0.03822773472353241 0.10768375978459829,-0.07591705064814178 0.15614145168766771,-0.11360636657275126 l0.8237807623521768,-3.0889086494212 q1.4860358850274564,0.39412256081162994 2.9666875820656813,0.801705591596334 c0.069994443859989,-0.033381965533225505 0.13460469973074782,-0.06676393106645097 0.20459914359073686,-0.10014589659967645 q1.8171634463650954,-6.598322380801256 3.6289427047409606,-13.196644761602514 c-0.04307350391383938,-0.05384187989229915 -0.09153119581690858,-0.10391482819213735 -0.13460469973074782,-0.1556030328887446 c-0.60841324278298,-0.16583299006828145 -1.21144229757673,-0.3305891425387172 -1.81447135237048,-0.4931916198134602 l4.26427688747009,-15.82951268833594 c-0.032305127935379596,-0.047919273104146315 -0.069994443859989,-0.09637696500721557 -0.10229957179536846,-0.14429623811136172 c-0.6299499947399001,-0.17014034045966547 -1.265284177469029,-0.338127005723639 -1.8952341722089292,-0.5050368333897658 l2.148291007702735,-8.144661171308087 c0.5384187989229907,0.14268098171459276 1.0822217858352121,0.28643880102703156 1.620640584758204,0.43073503913839295 c0.4145824751707036,0.13675837492643983 0.8237807623521768,0.27405516865180235 1.2383632375228797,0.41242879997501164 c2.9774559580441413,1.6152563967689746 4.118903811760882,3.5810234316368144 3.472801253053293,5.84453606230907 c-0.032305127935379596,0.10768375978459829 -0.06461025587075905,0.2153675195691966 -0.09153119581690858,0.323051279353795 c0.026920939946149594,0.06084132427829807 0.05922606788152911,0.12168264855659608 0.09153119581690858,0.18252397283489424 q5.419185211159906,1.5458003717079078 10.806065294384434,3.248280613902406 l0.17767820364458728,-0.1017611529964454 c0.08076281983844875,-0.250903160298114 0.15614145168766771,-0.501806320596228 0.23690427152611623,-0.7537863184921884 a8.96790351486134,8.96790351486134 0 0 0 0.42535085114916316,-2.4282687831426903 q1.776782036445871,0.5599555508799107 3.5481798849025115,1.1360636657275114 l0.20998333157996688,-0.04953452950091531 l0.12922051174151786,-0.3935841420127071 c1.21144229757673,-3.715089712568639 0.20998333157996688,-7.725232926947077 -3.182055101634878,-11.974972506846248 c-2.7728568144534043,-2.8762332238466186 -5.696470892605247,-4.738085430522324 -8.679311038638618,-5.582864526032495 q-5.031523675935353,-1.45803810748346 -10.079199915838393,-2.786855703225402 q-11.783295414429663,-2.9704565136581422 -23.690427152611612,-5.2415070075153185 h0 zm-2.4498055350996095,2.937074548124917 l-0.9691538380613844,5.098287607001803 l0.16152563967689754,0.14591149450813087 q8.641621722714008,1.6411004991172768 17.224017377546488,3.6585557386817253 c0.04845769190306929,0.06299499947399008 0.10229957179536846,0.12598999894797996 0.1507572636984376,0.18898499842197017 l-2.6490204907011172,11.236800333522826 c0.032305127935379596,0.04684243550630034 0.069994443859989,0.09368487101260066 0.10768375978459829,0.14106572531782383 c0.6030290547937498,0.14268098171459276 1.21144229757673,0.2869772198259547 1.81447135237048,0.43073503913839295 l-3.8443102243101572,15.937196448120538 l0.14537307570920763,0.15021884489951473 q0.9126198641744702,0.22075170755842663 1.8252397283489408,0.44527234670931426 q-1.647561524704353,6.680700457036473 -3.300507237397936,13.361939332871872 c0.032305127935379596,0.05868764908260608 0.05922606788152911,0.11737529816521218 0.08614700782767871,0.17606294724781818 q2.6328679267334274,0.6509483278978969 5.260351665477623,1.3406628093182484 c-0.2153675195691966,0.8243191811510997 -0.43073503913839295,1.6486383623021985 -0.6514867466968196,2.4729575434532984 q-4.1835140676316405,-1.0989127686018247 -8.383180699230973,-2.0998333157996654 l3.1982076656025678,-13.460469973074778 c-0.04845769190306929,-0.06245658067506709 -0.09153119581690858,-0.124374742551211 -0.13460469973074782,-0.18683132322627816 c-0.5922606788152903,-0.1399888877199778 -1.1845213576305806,-0.2783625190431868 -1.771397848456642,-0.41512089396962654 q1.8413922923166297,-7.930908908135663 3.677400396644031,-15.860740978673473 c-0.04307350391383938,-0.06245658067506709 -0.09153119581690858,-0.12491316135013411 -0.1399888877199778,-0.18736974202520118 c-0.6299499947399001,-0.1464499133070537 -1.265284177469029,-0.29074615141841526 -1.8952341722089292,-0.4339655519319312 q1.284128835431334,-5.6851640978278635 2.5736418588518983,-11.369251358057882 c-0.032305127935379596,-0.05922606788152911 -0.069994443859989,-0.11845213576305819 -0.10229957179536846,-0.17767820364458728 q-8.657774286681697,-1.9544602400904578 -17.369390453255694,-3.5261047141466695 q0.6999444385998892,-3.866923813864923 1.3945046892105468,-7.733847627729845 Q285.95099377352716,9.92991857813054 287.7412362799461,10.266968746256333 zm32.4181958831533,13.008736600778391 c3.354349117290235,0.9341566161313893 5.184973033628406,2.8390823267209324 5.48648756102528,5.645859525506487 q-0.24228845951534606,1.3018966557957927 -0.06461025587075905,1.354123279291323 c1.7552452844889515,0.5206509785585326 3.4997221929994424,1.0536855894922936 5.249583289499164,1.5991038328012848 c0.19383076761227713,0.0888391018222937 0.11845213576305819,0.9153119581690851 -0.24767264750457588,2.4848027570296045 a0.09260803341475458,0.09260803341475458 0 0 1 -0.010768375978459832,0.03607405952784046 q-4.603480730791574,-1.4456544751082312 -9.239266589518527,-2.777164164844789 a4.019296333960128,4.019296333960128 0 0 0 0.10768375978459829,-1.2205954171584208 c-0.5438029869122212,-2.8945394630100005 -2.3098166473796318,-4.7650063704684715 -5.254967477488394,-5.55863568008096 c-0.6730234986537396,-0.18252397283489424 -1.351431185296708,-0.36235585167517353 -2.0298388719396767,-0.5384187989229907 c0.22075170755842663,-0.8237807623521768 0.4361192271276233,-1.648099943503276 0.6568709346860497,-2.472419124654375 q2.6732493366526513,0.706943882985888 5.346498673305302,1.4499618254996154 h0 zm25.865639100260495,2.9973774536042916 a16.071262729052364,16.071262729052364 0 0 0 -3.6827845846332594,0.6067979863862116 c-3.720473900557869,1.2060581095875003 -6.030290547937501,3.325812920947316 -6.988676010020425,6.279578451838846 l-3.0689871538610496,9.440635220315725 l0.08076281983844875,0.18521606682950922 c0.5599555508799107,0.18252397283489424 1.1252952897490514,0.3666632020665575 1.6852508406289628,0.5518792688960655 c0.026920939946149594,0.05007294829983824 0.05922606788152911,0.10014589659967645 0.09153119581690858,0.15021884489951473 q-2.4794185690403743,7.496404937404806 -4.964221326069978,14.993348293608536 c0.04307350391383938,0.06568709346860498 0.08076281983844875,0.13191260573613292 0.11845213576305819,0.197599699204738 c0.5545713628906811,0.18252397283489424 1.103758537792132,0.3666632020665575 1.6529457126935831,0.5518792688960655 l-0.6461025587075899,1.9248472061496935 a16.541302340512136,16.541302340512136 0 0 0 -0.8453175143090967,3.445880313107143 a10.761914952872745,10.761914952872745 0 0 0 1.8844657962304698,6.969292933259197 c1.3783521252428574,2.4767264750457594 4.005835863987054,4.404265775190067 7.90398796818951,5.883302215831524 q2.6974781826041867,1.0229957179536833 5.3734196132514525,2.086911264625514 c2.9989927100010605,1.192597639614425 5.49187174901451,1.6620988322752739 7.516326432964957,1.3724295184547046 a12.30717690578173,12.30717690578173 0 0 0 5.389572177219142,-1.6572530630849671 c4.091982871814733,-0.8130123863737165 6.8863764382250565,-2.741628524115871 8.313186255370983,-5.895685848206753 c0.4791927310414626,-1.0617618714761385 0.9637696500721546,-2.1240621617512003 1.4429623811136163,-3.1863624520262617 c-0.021536751956919665,-0.06407183707183604 -0.03768931592460943,-0.1276052553447489 -0.05922606788152911,-0.1916770924165849 c-0.5653397388691411,-0.25574892948842126 -1.1306794777382814,-0.5104210213789957 -1.7014034045966526,-0.7629394380738799 l6.4933307150112745,-14.561536416872295 c-0.03768931592460943,-0.05976448668045209 -0.08076281983844875,-0.11899055456198117 -0.11845213576305819,-0.17875504124243327 l-1.6906350286181935,-0.7478637117040347 l3.359733305279465,-7.64123959431509 c1.1414478537167414,-2.5924865168142026 1.4591149450813061,-4.890457950617529 0.9368487101260047,-6.8949911390078285 a14.208872103577738,14.208872103577738 0 0 0 -8.598548218800168,-9.260803341475448 q-4.692319832613867,-1.8844657962304698 -9.416944793163115,-3.65047945669788 a14.72306205654919,14.72306205654919 0 0 0 -10.461477263073718,-0.01130679477738283 h0 zm-2.2236696395519537,1.1845213576305806 a9.203192529990687,9.203192529990687 0 0 0 -3.230512793537947,4.223357058751943 q-1.5587224228820593,4.630401670737724 -3.1282132217425787,9.260803341475448 c0.032305127935379596,0.061918161876144025 0.05922606788152911,0.124374742551211 0.08614700782767871,0.1862929044273551 c0.5761081148476004,0.19544602400904604 1.1522162296952012,0.3925073044148612 1.7337085325320318,0.5922606788152903 l-5.152667905693026,15.010039276375146 c0.032305127935379596,0.05007294829983824 0.05922606788152911,0.09960747780075355 0.09153119581690858,0.1496804261005917 q0.8722384542552463,0.2993608522011833 1.7444769085104916,0.6041058923915967 c-0.36612478326763453,1.0531471706933706 -0.7376337545244985,2.1068327601856645 -1.103758537792132,3.159979930879035 a10.274645939847439,10.274645939847439 0 0 0 0.9583854620829244,8.9178305665615 c1.4806516970382257,2.612946431173276 4.005835863987054,4.584097654030346 7.6186260047603245,5.989909138018277 q3.0689871538610496,1.1936744772122716 6.116437555765179,2.444959765909303 a15.242097778710956,15.242097778710956 0 0 0 5.53494525292835,1.346046997307478 c0.04845769190306929,0.02207517075584267 0.10229957179536846,0.04468876031060837 0.15614145168766771,0.06730234986537391 a12.606537757982915,12.606537757982915 0 0 1 -8.991593942013953,-0.15344935769305268 q-4.110827529777038,-1.6540225502914292 -8.253960187489454,-3.2030534347928743 a12.545158014905693,12.545158014905693 0 0 1 -5.319577733359153,-4.017142658764437 c-2.2613589554765627,-3.1637488624714964 -2.9236140781518425,-6.249965417898082 -1.8898499842196994,-9.29149321301406 l1.2922051174151787,-3.810389839978008 c-0.026920939946149594,-0.06137974307722107 -0.04845769190306929,-0.12275948615444207 -0.07537863184921881,-0.18467764803058617 c-0.5814923028368305,-0.19598444280796903 -1.157600417684431,-0.390892048018092 -1.7390927205212614,-0.5841843968314454 q2.5278762609434438,-7.5626304496723336 5.050368333897658,-15.124184061746822 l-0.09691538380613862,-0.15021884489951473 c-0.6030290547937498,-0.20136863079719905 -1.2060581095875003,-0.40166042399655194 -1.81447135237048,-0.5997985420002122 q1.3810442192374728,-4.199666631599331 2.756704250485715,-8.399333263198661 c1.1091427257813617,-3.404422065590073 3.6450952687086504,-5.58017243203788 7.656315320684935,-6.4351814847275906 h0 zm10.585313586826006,7.2778069050420715 q3.739318558520174,1.4085035779825448 7.457100365083427,2.8918473690153865 q0.47650063704684736,0.2110601691778126 0.9530012740936947,0.4226587571545485 c1.1899055456198107,0.8566243090864798 1.5667987048659051,1.7993956260006367 1.1522162296952012,2.8196992499597044 l-3.5212589449563616,8.63462227832801 l0.11306794777382821,0.2089064939821208 c0.5976448668045204,0.2439037159121152 1.1899055456198107,0.4894226882209994 1.7875504124243315,0.7365569169266525 l-6.07336405185134,14.660067057075205 l0.08076281983844875,0.15506461408982164 q0.815704480368332,0.338127005723639 1.631408960736663,0.6816381994365077 c-0.5168820469660717,1.2249027675498048 -1.0283799059429133,2.4498055350996095 -1.5452619529089846,3.6747083026494147 a2.4185772447620764,2.4185772447620764 0 0 1 -2.945150830108761,0.6057211487883648 l-0.6461025587075899,-0.2654404678690348 q0.5734160208529848,-1.4085035779825448 1.157600417684431,-2.8180839935629356 l-0.06461025587075905,-0.18898499842197017 q-0.8560858902875563,-0.34943380050102146 -1.7121717805751122,-0.6950986694095826 l5.976448668045202,-14.782288124430721 l-0.12922051174151786,-0.1733708532532033 c-0.5761081148476004,-0.2336737587325784 -1.157600417684431,-0.46627067986731074 -1.7390927205212614,-0.6999444385998892 q1.7848583184297162,-4.4898743642188235 3.5751008248486618,-8.978671890839802 a3.1987460844014906,3.1987460844014906 0 0 0 -2.2559747674873334,-2.9887627528215233 q-3.569716636859432,-1.3901973388191633 -7.166354213665012,-2.709861814979415 c0.021536751956919665,-0.04738085430522329 0.03768931592460943,-0.09422328981152363 0.05384187989229915,-0.1416041441167467 c0.533034610933761,-1.45803810748346 1.8252397283489408,-1.8171634463650954 3.8604627882778466,-1.0515319142966018 h0 zm-4.054293555890124,1.9824580176344537 q3.3678095872633103,1.2383632375228797 6.7140824225697004,2.5375677993240573 c0.33920384332148484,0.17067875925858833 0.6730234986537396,0.34243435611502276 1.0068431539859937,0.5141899529714569 c0.7591705064814179,0.6461025587075899 0.9853064020290734,1.346046997307478 0.6891760626214296,2.0890649398212062 q-1.7687057544620264,4.493643295811284 -3.5481798849025115,8.98782501042149 c0.021536751956919665,0.0635334182729131 0.04845769190306929,0.12652841774690302 0.069994443859989,0.19006183601981608 c0.5922606788152903,0.23528901512934733 1.1899055456198107,0.4716548678565404 1.7821662244351004,0.7096359769805027 q-2.9639954880710664,7.381183314435285 -5.922606788152903,14.76236662887057 c0.032305127935379596,0.06784076866429692 0.069994443859989,0.1362199561275169 0.10229957179536846,0.20459914359073686 q0.8318570443360209,0.3354349117290241 1.6637140886720427,0.6735619174526625 l-0.9045435821906256,2.229053827541183 q-3.0851397178287394,-1.2566694766862614 -6.186431999625168,-2.456266560686686 c-1.4752675090489957,-0.7580936688835721 -2.0029179319935273,-1.6933271226128077 -1.5775670808443643,-2.8196992499597044 l1.2275948615444199,-3.2342817251304075 c-0.021536751956919665,-0.06299499947399008 -0.04845769190306929,-0.12545158014905702 -0.069994443859989,-0.1879081608241243 c-0.5761081148476004,-0.21859803236273473 -1.157600417684431,-0.43558080832870016 -1.7337085325320318,-0.6514867466968196 q2.786317284426479,-7.468945578659734 5.578018756842187,-14.937352738520541 c-0.04845769190306929,-0.05384187989229915 -0.09153119581690858,-0.11306794777382821 -0.13460469973074782,-0.1696019216607424 c-0.5868764908260611,-0.21967486996058067 -1.1737529816521208,-0.4371960647254691 -1.7660136604674115,-0.653640421892512 l2.8428512583133942,-7.730078696137384 C350.21935370697,36.75501997807181 350.2785797748515,36.73617532010951 350.3324216547439,36.71679224334829 zm37.58701635281402,6.67639310664509 a15.264172949466799,15.264172949466799 0 0 0 -3.8066209083855482,0.16152563967689754 c-3.8550786002886173,0.7780151644437224 -6.396415331205136,2.6264069011463516 -7.672467884652624,5.458489783481284 q-2.043299341912751,4.5227179109531255 -4.081214495836273,9.04866633469979 l0.06461025587075905,0.19383076761227713 c0.5384187989229907,0.24551897230888414 1.0822217858352121,0.4921147822156143 1.6260247727474333,0.7403258485191135 c0.026920939946149594,0.05384187989229915 0.05384187989229915,0.10768375978459829 0.07537863184921881,0.16152563967689754 q-3.2224365115541023,7.045209983907339 -6.439488835118975,14.088804711417911 l0.09691538380613862,0.20998333157996688 q0.7995519164006423,0.3666632020665575 1.5991038328012848,0.7376337545244985 c-0.3284354673430249,0.7053286265891189 -0.6568709346860497,1.410118834379314 -0.9799222140398446,2.114909042169509 a18.535067152923972,18.535067152923972 0 0 0 -1.346046997307478,3.7280117637427908 c-0.19921495560150704,3.1702098880585723 0.3499722192999446,5.684625679028941 1.6529457126935831,7.56370728727018 c1.1845213576305806,2.2672815622647158 3.5158747569671323,4.250277998698092 6.999444385998885,6.030290547937501 q8.407409545182508,4.298735690601161 16.637140886720427,9.064280479868557 l0.16690982766612766,-0.033381965533225505 l1.5829512688335945,-2.7330138233331036 q1.3487390913020931,0.7801688396394141 2.686709806625727,1.5727213116540573 l0.1722940156553574,-0.031228290337533538 q2.148291007702735,-3.6407879183172662 4.307350391383929,-7.282114255433456 c-0.021536751956919665,-0.05384187989229915 -0.03768931592460943,-0.10768375978459829 -0.05922606788152911,-0.16475615247043568 q-8.82737620834244,-5.217278161563784 -17.86473574826485,-9.911751669373343 c-1.3998888771997773,-0.9250034965496994 -1.8252397283489408,-1.9280777189432312 -1.2706683654582591,-3.0232215559525955 l1.7283243445428016,-3.3818084760353075 c-0.032305127935379596,-0.060302905479375085 -0.069994443859989,-0.12114422975767312 -0.10768375978459829,-0.18144713523704845 c-0.5545713628906811,-0.28428512583133936 -1.1145269137705915,-0.5669549952659101 -1.669098276661273,-0.8485480271026341 q1.5506461408982144,-3.0722176666545873 3.095908093807199,-6.143896914510252 q9.287724281421598,4.684243550630023 18.37623360724169,9.898291199400271 l0.17767820364458728,-0.02961303394076455 q0.7833993524329519,-1.3686605868622437 1.572182892855134,-2.7389364301212558 q1.4214256291566967,0.815704480368332 2.8320828823349333,1.6443310119108152 l0.22075170755842663,-0.004307350391383935 q1.3568153732859378,-2.3195081857602458 2.7190149345611054,-4.6390163715204915 c-0.03768931592460943,-0.06407183707183604 -0.069994443859989,-0.1276052553447489 -0.10768375978459829,-0.1916770924165849 c-0.5545713628906811,-0.323051279353795 -1.103758537792132,-0.6461025587075899 -1.6583299006828132,-0.9691538380613844 q2.4551897230888398,-4.246509067105631 4.915763634166909,-8.493018134211262 c1.0929901618136721,-1.8844657962304698 1.3298944333397884,-4.145824751707032 0.6622551226752795,-6.776000584445846 a14.619147228357056,14.619147228357056 0 0 0 -7.3440324173096005,-8.916753728963656 q-4.514641628969282,-2.419115663561 -9.066972573863172,-4.720317610157865 a14.971273122852693,14.971273122852693 0 0 0 -10.493782391009097,-1.206596528386423 h0 zm-2.38519527922885,0.8700847790595541 a9.142889624511314,9.142889624511314 0 0 0 -3.68816877262249,3.8373107799241577 l-4.1350563757285705,8.900601164995967 c0.026920939946149594,0.05384187989229915 0.05384187989229915,0.10768375978459829 0.07537863184921881,0.16152563967689754 q0.8399333263198668,0.390892048018092 1.6798666526397328,0.7855530276286445 q-3.3355044593279306,7.0764382742448735 -6.665624730666631,14.152876548489747 l0.09691538380613862,0.2115985879767358 q0.8237807623521768,0.3892767916213231 1.647561524704353,0.7817840960361837 L373.0106214653802,76.31695648533535 c-1.3945046892105468,2.920383565358304 -1.3568153732859378,5.930683070136748 0.032305127935379596,9.040590052715945 c1.1845213576305806,2.758319506882484 3.510490568977902,5.009986923978432 7.015596949966574,6.8379187463219875 q6.662932636672015,3.4824927914339074 13.212797325570202,7.2562701530851506 q-0.5976448668045204,1.042917213513834 -1.2006739215982702,2.085296008228745 q-8.568935184859404,-4.938915642520598 -17.337085325320317,-9.373332870450351 a12.803060619589806,12.803060619589806 0 0 1 -4.974989702048438,-4.4764138942457485 c-2.0675281878642857,-3.5051063809886727 -2.46057391107807,-6.733465499330929 -1.0714534098567525,-9.712536713771838 l1.8575448562843198,-3.9842991120301345 c-0.021536751956919665,-0.05384187989229915 -0.04845769190306929,-0.10768375978459829 -0.069994443859989,-0.15829512688335964 c-0.5599555508799107,-0.26167153627657375 -1.1199111017598218,-0.5217278161563786 -1.6852508406289628,-0.7801688396394141 l6.541788406914343,-14.208872103577738 c-0.021536751956919665,-0.05384187989229915 -0.04845769190306929,-0.10768375978459829 -0.07537863184921881,-0.16152563967689754 c-0.5868764908260611,-0.2692093994614956 -1.1683687936628908,-0.5384187989229907 -1.7552452844889515,-0.8027824291941804 l3.65047945669788,-8.04613053110518 c1.4806516970382257,-3.262279502674404 4.25889269948086,-5.152667905693026 8.383180699230973,-5.570480893657267 h0 zm9.890753336215347,8.477942407841422 q3.5212589449563616,1.788088831223254 7.015596949966574,3.648325781502188 c2.0029179319935273,1.0692997346610602 2.6220995507549674,2.310355066178555 1.8683132322627802,3.696245054606335 q-1.4860358850274564,2.7260143789471045 -2.9613033940764515,5.451490339095286 q-1.5506461408982144,-0.8415485827166355 -3.106676469785659,-1.669098276661273 q0.9772301200452289,-1.8257781471478631 1.9436918641119982,-3.65209471309465 a3.204130272390721,3.204130272390721 0 0 0 -1.9060025481873888,-3.214360229570257 q-3.456648689085603,-1.8074719079844814 -6.945602506106586,-3.5438725345111273 l0.04845769190306929,-0.10068431539859951 c0.6999444385998892,-1.4138877659717752 2.0513756238965963,-1.6281784479431252 4.043525179911663,-0.6164895247668245 h0 zm-4.27504526344855,1.5075726369843752 q3.2466653575056372,1.6152563967689746 6.4717939630543535,3.2978151434033207 c0.18306239163381716,0.12491316135013411 0.36612478326763453,0.24982632270026822 0.5545713628906811,0.3768931592460941 c0.9530012740936947,0.4991142266016132 1.2383632375228797,1.3180492197634823 0.8560858902875563,2.447651859903918 c-0.5384187989229907,1.0192267863612223 -1.0822217858352121,2.0384535727224447 -1.620640584758204,3.057680359083667 q-4.377344835243918,-2.315200835368862 -8.792378986412444,-4.51625688536605 l2.293664083411942,-4.611557012775419 c0.08076281983844875,-0.016690982766612746 0.15614145168766771,-0.033920384332148515 0.23690427152611623,-0.05007294829983824 h0 zm13.250486641494811,22.931256646130194 q-0.6218737127560552,1.0768375978459823 -1.23297904953365,2.1536751956919646 q-8.754689670487837,-4.999218547999973 -17.697825920598717,-9.509014407778949 q0.5653397388691411,-1.1080658881835157 1.1199111017598218,-2.2161317763670314 q8.996978130003184,4.538870474920815 17.810893868372546,9.569855732057244 h0 zM157.03899600379222,84.96234713964182 h0.9153119581690851 L156.91085232964863,78.21865168313133 h-0.7597089252803406 l-3.779161549640475,6.743695456510466 h0.9077740949841637 l0.9400792229195428,-1.73693904532557 h2.5844102348303575 zm-0.7780151644437224,-5.5069474753843535 l0.027997777543995586,0.009153119581690867 l0.4075830307847044,2.9968390348053684 h-2.0610671622772103 zm13.530464416934768,4.389190048820224 a2.5564124572863625,2.5564124572863625 0 0 1 -0.06461025587075905,-1.2922051174151787 l0.032305127935379596,-0.19383076761227713 a2.8886168562218493,2.8886168562218493 0 0 1 0.4910379446177683,-1.2582847330830305 a1.1769834944456585,1.1769834944456585 0 0 1 1.0052278975892244,-0.5228046537542242 a0.819473411960793,0.819473411960793 0 0 1 0.6945602506106596,0.31012922817964333 a0.9912290088172259,0.9912290088172259 0 0 1 0.15721828928551368,0.7920140532157196 h0.8108587111780245 l0.009153119581690867,-0.023152008353688667 a1.44888498790177,1.44888498790177 0 0 0 -0.3128213221742584,-1.2760525534474891 a1.5646450296702121,1.5646450296702121 0 0 0 -1.2480547759034935,-0.5206509785585326 a2.1989023748014955,2.1989023748014955 0 0 0 -1.6836355842321937,0.6967139258063512 a3.3096603569796272,3.3096603569796272 0 0 0 -0.8221655059554077,1.8042413951909433 l-0.032305127935379596,0.19436918641120007 a2.5224920729542135,2.5224920729542135 0 0 0 0.27782410024426385,1.7832430620329474 a1.561414516876674,1.561414516876674 0 0 0 1.4311171675373104,0.7225580281546545 a2.2150549387691854,2.2150549387691854 0 0 0 1.38965892002024,-0.48888426942207663 a1.7579373784835663,1.7579373784835663 0 0 0 0.7225580281546545,-1.16459986207043 l-0.009153119581690867,-0.027997777543995586 h-0.801705591596334 a1.0612234526772155,1.0612234526772155 0 0 1 -0.42804294514377833,0.6821766182354307 a1.2286716991422657,1.2286716991422657 0 0 1 -0.7618626004760334,0.2810546130378017 A0.8124739675747937,0.8124739675747937 0 0 1 169.7914452562833,83.84458971307767 zm9.717920901761067,-6.107284436183488 h-0.8937752062121659 l-1.4451160563093084,7.225041862747618 h0.8937752062121659 zm7.457638783882351,7.225041862747618 a2.5305683549380578,2.5305683549380578 0 0 1 0,-0.4845769190306923 a4.663783636270949,4.663783636270949 0 0 1 0.08345491383306378,-0.5233430725531477 l0.48188482503607755,-2.4131930567728466 a1.3067424249860997,1.3067424249860997 0 0 0 -0.2756704250485716,-1.2383632375228797 a1.5727213116540573,1.5727213116540573 0 0 0 -1.1785987508424278,-0.4420418339157761 a2.3776574160439297,2.3776574160439297 0 0 0 -1.435962936727618,0.4371960647254691 a1.5689523800615965,1.5689523800615965 0 0 0 -0.6945602506106596,1.0170731111655305 l0.009153119581690867,0.027459358745072607 h0.8474711895047884 a0.8754689670487837,0.8754689670487837 0 0 1 0.3768931592460941,-0.5346498673305305 a1.1672919560650448,1.1672919560650448 0 0 1 0.7037133701923496,-0.22936640834119446 a0.7844761900307986,0.7844761900307986 0 0 1 0.6487946527022047,0.24282687831426905 a0.8458559331080201,0.8458559331080201 0 0 1 0.1017611529964454,0.7112512333772715 l-0.09745380260506156,0.4953452950091523 h-0.8566243090864798 a2.8573885658843143,2.8573885658843143 0 0 0 -1.5495693033003695,0.3822773472353243 a1.6631756698731204,1.6631756698731204 0 0 0 -0.7537863184921884,1.1462936229070484 a1.2658225962679523,1.2658225962679523 0 0 0 0.18252397283489424,1.0951438370093638 a1.2157496479681142,1.2157496479681142 0 0 0 1.0122273419752237,0.4102751247793194 a1.6572530630849671,1.6572530630849671 0 0 0 0.803320847993103,-0.2202132887595036 a2.867080104264928,2.867080104264928 0 0 0 0.7112512333772715,-0.5486487561025277 q-0.023152008353688667,0.1529109388941296 -0.032305127935379596,0.29882243340226045 t-0.009691538380613856,0.3725858088547102 h0.9217729837561609 zm-2.630714251537735,-0.8496248647004802 a0.6417952083162058,0.6417952083162058 0 0 1 -0.069456025061066,-0.5384187989229907 a1.0768375978459823,1.0768375978459823 0 0 1 0.43558080832870016,-0.6461025587075899 a1.3132034505731758,1.3132034505731758 0 0 1 0.8243191811510997,-0.28266986943457084 h0.884622086630475 l-0.18521606682950922,0.9217729837561609 a1.8177018651640182,1.8177018651640182 0 0 1 -0.6019522171959044,0.5141899529714569 a1.556568747686367,1.556568747686367 0 0 1 -0.7645546944706479,0.2153675195691966 A0.6337189263323616,0.6337189263323616 0 0 1 184.33629069038892,84.11272227494132 zm10.201959401992836,0.030689871538610546 a1.2297485367401118,1.2297485367401118 0 0 1 -0.7107128145783488,0.19813811800366102 a1.0197652051601453,1.0197652051601453 0 0 1 -0.6762540114472768,-0.2234438015530416 a0.739249010921267,0.739249010921267 0 0 1 -0.2083680751831978,-0.7074823017848106 H192.0857524632876 l-0.009153119581690867,0.027997777543995586 a1.2232875111530361,1.2232875111530361 0 0 0 0.323051279353795,1.1306794777382814 a1.7024802421944987,1.7024802421944987 0 0 0 1.3153571257688674,0.4910379446177683 a2.3453522881085496,2.3453522881085496 0 0 0 1.38965892002024,-0.40004516759978287 a1.5964117388066685,1.5964117388066685 0 0 0 0.6762540114472768,-1.0892212302212112 a0.9901521712193806,0.9901521712193806 0 0 0 -0.28266986943457084,-0.9363102913270813 a2.7534737376921767,2.7534737376921767 0 0 0 -1.2319022119358038,-0.5524176876949886 a1.669098276661273,1.669098276661273 0 0 1 -0.7247117033503465,-0.3020529461957983 a0.5211893973574554,0.5211893973574554 0 0 1 -0.10768375978459829,-0.47380854305223274 a0.8243191811510997,0.8243191811510997 0 0 1 0.3058218777882594,-0.5136515341725337 a1.0229957179536833,1.0229957179536833 0 0 1 0.6762540114472768,-0.2153675195691966 a0.7128664897740402,0.7128664897740402 0 0 1 0.7597089252803406,0.8523169586950955 h0.8566243090864798 l0.013998888771997786,-0.027997777543995586 a1.1845213576305806,1.1845213576305806 0 0 0 -0.3058218777882594,-1.088144392623365 a1.583489687632517,1.583489687632517 0 0 0 -1.2135959727724221,-0.45388704749208186 a2.1466757513059656,2.1466757513059656 0 0 0 -1.3385091341225561,0.4188898255620876 a1.6120258839754356,1.6120258839754356 0 0 0 -0.6525635842946659,1.0536855894922936 a0.9508475988980022,0.9508475988980022 0 0 0 0.2848235446302626,0.9260803341475455 a2.787932540823248,2.787932540823248 0 0 0 1.2017507591961165,0.5421877305154523 a1.583489687632517,1.583489687632517 0 0 1 0.7317111477363453,0.332204398935486 a0.560493969678834,0.560493969678834 0 0 1 0.12491316135013411,0.4991142266016132 A0.7537863184921884,0.7537863184921884 0 0 1 194.53825009238184,84.14341214647995 zm8.472019801053266,0 A1.2319022119358038,1.2319022119358038 0 0 1 202.2995570788567,84.3393965892879 a1.0197652051601453,1.0197652051601453 0 0 1 -0.6757155926483548,-0.2234438015530416 a0.7403258485191135,0.7403258485191135 0 0 1 -0.2089064939821208,-0.7074823017848106 h-0.8566243090864798 l-0.009153119581690867,0.027997777543995586 a1.2232875111530361,1.2232875111530361 0 0 0 0.323051279353795,1.1306794777382814 a1.7024802421944987,1.7024802421944987 0 0 0 1.3153571257688674,0.4910379446177683 a2.3453522881085496,2.3453522881085496 0 0 0 1.38965892002024,-0.40004516759978287 a1.5964117388066685,1.5964117388066685 0 0 0 0.6762540114472768,-1.0892212302212112 a0.9901521712193806,0.9901521712193806 0 0 0 -0.28266986943457084,-0.9363102913270813 a2.7534737376921767,2.7534737376921767 0 0 0 -1.2319022119358038,-0.5524176876949886 a1.6760977210472725,1.6760977210472725 0 0 1 -0.7252501221492691,-0.3020529461957983 a0.5222662349553009,0.5222662349553009 0 0 1 -0.10768375978459829,-0.47380854305223274 a0.8243191811510997,0.8243191811510997 0 0 1 0.3058218777882594,-0.5136515341725337 a1.0229957179536833,1.0229957179536833 0 0 1 0.6762540114472768,-0.2153675195691966 a0.7128664897740402,0.7128664897740402 0 0 1 0.7597089252803406,0.8523169586950955 h0.8566243090864798 l0.013998888771997786,-0.027997777543995586 a1.1845213576305806,1.1845213576305806 0 0 0 -0.3058218777882594,-1.088144392623365 a1.5840281064314405,1.5840281064314405 0 0 0 -1.2135959727724221,-0.45388704749208186 a2.1466757513059656,2.1466757513059656 0 0 0 -1.3385091341225561,0.4188898255620876 a1.6152563967689746,1.6152563967689746 0 0 0 -0.6531020030935891,1.0536855894922936 a0.951924436495849,0.951924436495849 0 0 0 0.2848235446302626,0.9260803341475455 a2.7933167288124783,2.7933167288124783 0 0 0 1.2022891779950393,0.5421877305154523 a1.583489687632517,1.583489687632517 0 0 1 0.7317111477363453,0.332204398935486 a0.560493969678834,0.560493969678834 0 0 1 0.12491316135013411,0.4991142266016132 A0.7537863184921884,0.7537863184921884 0 0 1 203.0102698934351,84.14341214647995 zM210.80657410183997,79.95128337806554 h-0.8943136250110885 l-1.0003821283989174,5.0110637615762785 h0.8937752062121659 zm0.4441955091114682,-2.2139781011713393 h-0.8937752062121659 l-0.18521606682950922,0.9309261033378521 h0.8937752062121659 zm4.9103794461776795,6.107284436183488 a2.5564124572863625,2.5564124572863625 0 0 1 -0.06461025587075905,-1.2922051174151787 l0.032305127935379596,-0.19383076761227713 a2.8886168562218493,2.8886168562218493 0 0 1 0.4910379446177683,-1.2582847330830305 a1.1759066568478127,1.1759066568478127 0 0 1 1.0046894787903005,-0.5228046537542242 a0.8200118307597162,0.8200118307597162 0 0 1 0.6950986694095826,0.31012922817964333 a0.9912290088172259,0.9912290088172259 0 0 1 0.15721828928551368,0.7920140532157196 h0.8108587111780245 l0.009153119581690867,-0.023152008353688667 a1.44888498790177,1.44888498790177 0 0 0 -0.3128213221742584,-1.2760525534474891 a1.5646450296702121,1.5646450296702121 0 0 0 -1.2480547759034935,-0.5206509785585326 a2.1989023748014955,2.1989023748014955 0 0 0 -1.6836355842321937,0.6967139258063512 a3.3096603569796272,3.3096603569796272 0 0 0 -0.8221655059554077,1.8042413951909433 l-0.032305127935379596,0.19436918641120007 a2.5224920729542135,2.5224920729542135 0 0 0 0.27782410024426385,1.7832430620329474 a1.561414516876674,1.561414516876674 0 0 0 1.4311171675373104,0.7225580281546545 a2.2150549387691854,2.2150549387691854 0 0 0 1.38965892002024,-0.48888426942207663 a1.7579373784835663,1.7579373784835663 0 0 0 0.7225580281546545,-1.16459986207043 l-0.009691538380613856,-0.027997777543995586 h-0.8011671727974105 a1.0612234526772155,1.0612234526772155 0 0 1 -0.43073503913839295,0.6821766182354307 a1.2297485367401118,1.2297485367401118 0 0 1 -0.7618626004760334,0.2810546130378017 A0.8124739675747937,0.8124739675747937 0 0 1 216.1584569631345,83.84458971307767 zm13.648916552697825,-1.2922051174151787 a2.4907253638177576,2.4907253638177576 0 0 0 0.20998333157996688,1.780550968038332 a1.3320481085354803,1.3320481085354803 0 0 0 1.2222106735551899,0.7252501221492691 a1.7870119936254076,1.7870119936254076 0 0 0 1.2706683654582591,-0.5050368333897658 l-0.069994443859989,0.34297277491394623 a1.7525531904943359,1.7525531904943359 0 0 1 -0.4953452950091523,0.9691538380613844 a1.2868209294259492,1.2868209294259492 0 0 1 -0.9260803341475455,0.34943380050102146 a2.284510963830252,2.284510963830252 0 0 1 -0.6191816187614406,-0.08560858902875572 a1.4849590474296097,1.4849590474296097 0 0 1 -0.5007294829983822,-0.22452063915088752 l-0.36612478326763453,0.7085591393826566 a2.144522076110274,2.144522076110274 0 0 0 0.6407183707183596,0.2692093994614956 a2.7728568144534043,2.7728568144534043 0 0 0 0.6999444385998892,0.1017611529964454 a2.46057391107807,2.46057391107807 0 0 0 1.631408960736663,-0.5254967477488398 a2.6608657042774233,2.6608657042774233 0 0 0 0.834549138330636,-1.561414516876674 l0.9853064020290734,-4.94645350570552 h-0.7591705064814179 l-0.19383076761227713,0.6019522171959044 a1.410118834379314,1.410118834379314 0 0 0 -0.5222662349553009,-0.5141899529714569 a1.488189560223148,1.488189560223148 0 0 0 -0.7376337545244985,-0.18037029763920231 a1.8494685743004757,1.8494685743004757 0 0 0 -1.4591149450813061,0.6552556782892813 a4.1662846660661055,4.1662846660661055 0 0 0 -0.8237807623521768,1.9426150265141524 zm0.9153119581690851,-0.09745380260506156 a3.3268897585451627,3.3268897585451627 0 0 1 0.5384187989229907,-1.3498159288999394 a1.1182958453630527,1.1182958453630527 0 0 1 0.9314645221367748,-0.5071905085854581 a0.9901521712193806,0.9901521712193806 0 0 1 0.6030290547937498,0.18037029763920231 a1.0768375978459823,1.0768375978459823 0 0 1 0.3715089712568644,0.4845769190306923 l-0.46842435506300284,2.3340454933311667 a1.836546523126323,1.836546523126323 0 0 1 -0.48996110701992235,0.5351882861294527 a0.9987668720021483,0.9987668720021483 0 0 1 -0.5922606788152903,0.18736974202520118 a0.8533937962929411,0.8533937962929411 0 0 1 -0.8453175143090967,-0.4845769190306923 a2.0556829742879805,2.0556829742879805 0 0 1 -0.069994443859989,-1.2782062286431812 zm11.425246913145871,2.505801090187601 a2.444959765909303,2.444959765909303 0 0 1 0,-0.4845769190306923 a4.2535085114916305,4.2535085114916305 0 0 1 0.08614700782767871,-0.5233430725531477 l0.4791927310414626,-2.4131930567728466 a1.2922051174151787,1.2922051174151787 0 0 0 -0.2745935874507257,-1.2383632375228797 a1.579720756040056,1.579720756040056 0 0 0 -1.1791371696413506,-0.4420418339157761 a2.3916563048159265,2.3916563048159265 0 0 0 -1.4375781931243865,0.4371960647254691 a1.5931812260131313,1.5931812260131313 0 0 0 -0.6945602506106596,1.0170731111655305 l0.010768375978459832,0.027459358745072607 h0.8453175143090967 a0.8894678558207826,0.8894678558207826 0 0 1 0.3768931592460941,-0.5346498673305305 a1.1732145628531978,1.1732145628531978 0 0 1 0.7053286265891189,-0.22936640834119446 a0.7790920020415686,0.7790920020415686 0 0 1 0.6461025587075899,0.24282687831426905 a0.8361643947274053,0.8361643947274053 0 0 1 0.10229957179536846,0.7112512333772715 l-0.09691538380613862,0.4953452950091523 h-0.8560858902875563 a2.8622343350746204,2.8622343350746204 0 0 0 -1.5506461408982144,0.3822773472353243 a1.6734056270526576,1.6734056270526576 0 0 0 -0.7537863184921884,1.1462936229070484 a1.2873593482248717,1.2873593482248717 0 0 0 0.18306239163381716,1.0951438370093638 a1.2254411863487278,1.2254411863487278 0 0 0 1.0122273419752237,0.4102751247793194 a1.6777129774440407,1.6777129774440407 0 0 0 0.8076281983844872,-0.2202132887595036 a2.988224334022601,2.988224334022601 0 0 0 0.7107128145783488,-0.5486487561025277 a2.9413818985163007,2.9413818985163007 0 0 0 -0.032305127935379596,0.29882243340226045 c-0.005384187989229916,0.09691538380613862 -0.010768375978459832,0.22129012635734954 -0.010768375978459832,0.3725858088547102 h0.920696146158315 zm-2.627483738744197,-0.8496248647004802 a0.622950550353901,0.622950550353901 0 0 1 -0.069994443859989,-0.5384187989229907 a1.047224563905218,1.047224563905218 0 0 1 0.4361192271276233,-0.6461025587075899 a1.3067424249860997,1.3067424249860997 0 0 1 0.8237807623521768,-0.28266986943457084 h0.8830068302337059 l-0.18306239163381716,0.9217729837561609 a1.861313787876781,1.861313787876781 0 0 1 -0.6030290547937498,0.5141899529714569 a1.561414516876674,1.561414516876674 0 0 1 -0.7645546944706479,0.2153675195691966 A0.6256426443485161,0.6256426443485161 0 0 1 239.52044864840312,84.11272227494132 zm9.357718725281586,-4.161438896875798 h-0.7968598224060277 l-1.0014589659967637,5.0110637615762785 h0.8937752062121659 l0.743017942513728,-3.6913992854160282 a1.561414516876674,1.561414516876674 0 0 1 0.4791927310414626,-0.4931916198134602 a1.1306794777382814,1.1306794777382814 0 0 1 0.6299499947399001,-0.17821662244351025 a0.658486191082818,0.658486191082818 0 0 1 0.6299499947399001,0.3009761085979524 a1.7396311393201846,1.7396311393201846 0 0 1 0.016152563967689763,1.0558392646879857 l-0.6030290547937498,3.00599215438706 h0.8991593942013957 l0.6353341827291298,-3.182055101634878 V81.77113891842524 a0.019921495560150698,0.019921495560150698 0 0 1 0.005384187989229916,-0.013998888771997786 a1.9603828468786104,1.9603828468786104 0 0 1 0.48996110701992235,-0.8216270871564849 a1.0095352479806083,1.0095352479806083 0 0 1 0.7160970025675789,-0.33597333052794687 a0.6676393106645098,0.6676393106645098 0 0 1 0.6353341827291298,0.27997777543995567 a1.7530916092932594,1.7530916092932594 0 0 1 0.010768375978459832,1.0768375978459823 l-0.6030290547937498,3.00599215438706 h0.8991593942013957 l0.5976448668045204,-2.9968390348053684 a2.2360532719271826,2.2360532719271826 0 0 0 -0.12383632375228804,-1.572182892855134 a1.0876059738244421,1.0876059738244421 0 0 0 -0.9906905900183036,-0.5346498673305305 a1.7358622077277235,1.7358622077277235 0 0 0 -0.8991593942013957,0.23851952792288514 a2.2139781011713393,2.2139781011713393 0 0 0 -0.7053286265891189,0.6644087978709717 a1.090298067819057,1.090298067819057 0 0 0 -0.3822773472353243,-0.6762540114472768 a1.1199111017598218,1.1199111017598218 0 0 0 -0.7107128145783488,-0.22667431434657945 a1.9733048980527625,1.9733048980527625 0 0 0 -0.8453175143090967,0.17821662244351025 a2.0039947695913725,2.0039947695913725 0 0 0 -0.6784076866429688,0.5114978589768419 zm12.776678098442579,4.931916198134599 a2.315200835368862,2.315200835368862 0 0 0 0.7214811905568088,-0.44042657751900705 l-0.2530568354938062,-0.5922606788152903 a2.187595580024113,2.187595580024113 0 0 1 -1.3891205012213172,0.4926532010145374 a0.8663158474670933,0.8663158474670933 0 0 1 -0.829164950341407,-0.451194953497467 a1.9921495560150668,1.9921495560150668 0 0 1 -0.1399888877199778,-1.2157496479681142 h3.0205294619579806 l0.09153119581690858,-0.5707239268583713 a2.3098166473796318,2.3098166473796318 0 0 0 -0.24228845951534606,-1.6281784479431252 a1.4483465691028468,1.4483465691028468 0 0 0 -1.3191260573613286,-0.6170279435657486 a2.139676306919967,2.139676306919967 0 0 0 -1.5183410129628352,0.6897144814203523 a3.137904760123193,3.137904760123193 0 0 0 -0.877622642244476,1.8015493011963284 l-0.032305127935379596,0.20406072479181375 a2.425576689148075,2.425576689148075 0 0 0 0.3068987153861056,1.8037029763920205 a1.6303321231388175,1.6303321231388175 0 0 0 1.4321940051351567,0.6999444385998892 A2.7534737376921767,2.7534737376921767 0 0 0 261.6548454721272,84.88319957620016 zm0.26382521147226584,-3.957378172083985 a1.3998888771997773,1.3998888771997773 0 0 1 0.10768375978459829,0.9104661889787783 l-0.021536751956919665,0.12006739215982713 h-2.0621439998750564 l-0.010768375978459832,-0.027459358745072607 a2.235514853128259,2.235514853128259 0 0 1 0.5222662349553009,-0.9637696500721546 a1.0359177691278352,1.0359177691278352 0 0 1 0.7484021305029585,-0.3887383728223998 A0.743556361312651,0.743556361312651 0 0 1 261.9186706835995,80.92582140411615 zM119.38306204471608,82.77798207241123 v-0.5384187989229907 h22.61358955476563 v0.5384187989229907 H119.38306204471608 zm153.98777649197547,0 v-0.5384187989229907 h22.61358955476563 v0.5384187989229907 h-22.61358955476563 z"/></g></svg>