<svg xmlns="http://www.w3.org/2000/svg" xmlns:xlink="http://www.w3.org/1999/xlink" version="1.1" style="enable-background:new 0 0 37.1 37;" xml:space="preserve" width="18" height="18"><rect id="backgroundrect" width="100%" height="100%" x="0" y="0" fill="none" stroke="none" class="" style=""/>

<g class="currentLayer" style=""><title>Layer 1</title><path d="M17.30459424422498,14.616033581292681 L11.701809349812796,8.974333754883675 L17.30459424422498,3.3326339284746718 c0.3470751704503129,-0.3494858299545407 0.5454038392790629,-0.8487513013181692 0.5454038392790629,-1.3979433198181601 c0,-0.4992654713636294 -0.1983286688287502,-0.998530942727258 -0.5949860064862503,-1.3480167726817975 c-0.7437325081078129,-0.7488982070454437 -1.9337045210803132,-0.7488982070454437 -2.6774370291881255,0 L8.974790153417482,6.228373662383717 L3.3720052590052956,0.5866738359747139 C2.9753479213477947,0.23718800602017384 2.529108416483108,0.03748181747472228 1.9837045772040454,0.03748181747472228 c-0.4958216720718755,0 -0.9916433441437499,0.19970618854545177 -1.338718514594063,0.5991185656363546 C-0.09874644549783,1.3854985901565202 -0.09874644549783,2.5837357214292287 0.6449860626099827,3.3326339284746718 L6.24777095702217,8.974333754883675 L0.6449860626099827,14.616033581292681 c-0.3470751704503129,0.3494858299545407 -0.5949860064862503,0.8487513013181692 -0.5949860064862503,1.3480167726817975 c0,0.4992654713636294 0.1983286688287502,0.998530942727258 0.5454038392790629,1.3979433198181601 c0.3470751704503129,0.3494858299545407 0.8428968425221879,0.5991185656363546 1.338718514594063,0.5991185656363546 c0,0 0,0 0.049582167207187576,0 c0.4958216720718755,0 0.9916433441437499,-0.19970618854545177 1.338718514594063,-0.5491920184999919 l5.652367061619375,-5.691626373545369 L14.577575047829672,17.36199367379264 c0.3470751704503129,0.3494858299545407 0.8428968425221879,0.5491920184999919 1.3883006818012502,0.5491920184999919 c0.4958216720718755,0 0.9916433441437499,-0.19970618854545177 1.338718514594063,-0.5991185656363546 C17.998744585125607,16.56316891961083 17.998744585125607,15.364931788338124 17.30459424422498,14.616033581292681 z" id="svg_1" class="" fill="#ffffff" fill-opacity="1"/></g></svg>