<svg xmlns="http://www.w3.org/2000/svg" xmlns:xlink="http://www.w3.org/1999/xlink" width="102" height="102" version="1.1" style="enable-background:new 0 0 37.1 37;" xml:space="preserve"><rect id="backgroundrect" width="100%" height="100%" x="0" y="0" fill="none" stroke="none" class="" style=""/>

<g class="currentLayer" style=""><title>Layer 1</title><path d="M98.62019549713682,82.68258528659247 L66.67815082217476,50.819258662619745 L98.62019549713682,18.955932038647024 c1.9787107320772968,-1.9738343926354789 3.1094025789786093,-4.793597810686164 3.1094025789786093,-7.895337570541914 c0,-2.819763418050684 -1.1306918469013123,-5.639526836101368 -3.392075540703937,-7.6133612287368475 c-4.240094425879921,-4.229645127076026 -11.024245507287795,-4.229645127076026 -15.264339933167717,0 L51.13113792728171,35.310559863340984 L19.18909325231964,3.44723323936826 C16.927709558517016,1.473398846732782 14.383652902989063,0.34549347951250886 11.274250324010456,0.34549347951250886 c-2.8267296172532808,0 -5.6534592345065615,1.1279053672202737 -7.632169966583859,3.3837161016608204 C-0.5980140684533243,7.958854708249355 -0.5980140684533243,14.726286911570998 3.6420803574265976,18.955932038647024 L35.58412503238867,50.819258662619745 L3.6420803574265976,82.68258528659247 c-1.9787107320772968,1.9738343926354789 -3.392075540703937,4.793597810686164 -3.392075540703937,7.6133612287368475 c0,2.819763418050684 1.1306918469013123,5.639526836101368 3.1094025789786093,7.895337570541914 c1.9787107320772968,1.9738343926354789 4.805440349330577,3.3837161016608204 7.632169966583859,3.3837161016608204 c0,0 0,0 0.28267296172532824,0 c2.8267296172532808,0 5.6534592345065615,-1.1279053672202737 7.632169966583859,-3.101739759855753 l32.2247176366874,-32.145302965777795 L83.07318260224379,98.19128408587123 c1.9787107320772968,1.9738343926354789 4.805440349330577,3.101739759855753 7.914842928309185,3.101739759855753 c2.8267296172532808,0 5.6534592345065615,-1.1279053672202737 7.632169966583859,-3.3837161016608204 C102.57761696129144,93.67966261699014 102.57761696129144,86.9122304136685 98.62019549713682,82.68258528659247 z" id="svg_1" class="" fill="#ffffff" fill-opacity="1"/></g></svg>